<?xml version="1.0" encoding="UTF-8" standalone="no" ?>
<!DOCTYPE svg PUBLIC "-//W3C//DTD SVG 1.1//EN" "http://www.w3.org/Graphics/SVG/1.1/DTD/svg11.dtd">
<svg xmlns="http://www.w3.org/2000/svg" xmlns:xlink="http://www.w3.org/1999/xlink" version="1.1" width="1280" height="1024" viewBox="0 0 1280 1024" xml:space="preserve">
<desc>Created with Fabric.js 5.3.0</desc>
<defs>
</defs>
<g transform="matrix(1 0 0 1 640 512)" id="background-logo"  >
<rect style="stroke: none; stroke-width: 0; stroke-dasharray: none; stroke-linecap: butt; stroke-dashoffset: 0; stroke-linejoin: miter; stroke-miterlimit: 4; fill: rgb(255,255,255); fill-opacity: 0; fill-rule: nonzero; opacity: 1;"  paint-order="stroke"  x="-640" y="-512" rx="0" ry="0" width="1280" height="1024" />
</g>
<g transform="matrix(1.9211538461538462 0 0 1.9211538461538462 640.369234180958 512.4430810171497)" id="logo-logo"  >
<g style=""  paint-order="stroke"   >
		<g transform="matrix(0.11849439062247154 0 0 -0.11849439062247154 32.09971568926039 -13.66121829486471)"  >
<path style="stroke: none; stroke-width: 1; stroke-dasharray: none; stroke-linecap: butt; stroke-dashoffset: 0; stroke-linejoin: miter; stroke-miterlimit: 4; fill: rgb(0,0,0); fill-rule: nonzero; opacity: 1;"  paint-order="stroke"  transform=" translate(-1761.1815000000001, -1373.9405)" d="M 2617.08 1599.34 L 1705.23 1599.34 L 1849.28 1300.56 L 2512.77 1300.56 L 2382.88 928.391 L 1484.56 928.391 L 1100.13 1725.14 L 917.859 1725.14 L 872.363 1819.49 L 1159.46 1819.49 L 1543.89 1022.74 L 2315.79 1022.74 L 2379.84 1206.2 L 1790.0400000000002 1206.2 L 1554.9 1693.69 L 2650 1693.69 L 2617.08 1599.3400000000001" stroke-linecap="round" />
</g>
		<g transform="matrix(0.11849439062247154 0 0 -0.11849439062247154 83.77553417008733 57.34944839822157)"  >
<path style="stroke: none; stroke-width: 1; stroke-dasharray: none; stroke-linecap: butt; stroke-dashoffset: 0; stroke-linejoin: miter; stroke-miterlimit: 4; fill: rgb(0,0,0); fill-rule: nonzero; opacity: 1;"  paint-order="stroke"  transform=" translate(-2197.285, -774.666)" d="M 2274.15 774.672 C 2274.15 732.219 2239.7400000000002 697.801 2197.29 697.801 C 2154.83 697.801 2120.42 732.219 2120.42 774.672 C 2120.42 817.121 2154.83 851.5310000000001 2197.29 851.5310000000001 C 2239.74 851.5310000000001 2274.15 817.1210000000001 2274.15 774.672" stroke-linecap="round" />
</g>
		<g transform="matrix(0.11849439062247154 0 0 -0.11849439062247154 26.322343932875867 57.34944839822157)"  >
<path style="stroke: none; stroke-width: 1; stroke-dasharray: none; stroke-linecap: butt; stroke-dashoffset: 0; stroke-linejoin: miter; stroke-miterlimit: 4; fill: rgb(0,0,0); fill-rule: nonzero; opacity: 1;"  paint-order="stroke"  transform=" translate(-1712.4250000000002, -774.666)" d="M 1789.29 774.672 C 1789.29 732.219 1754.87 697.801 1712.42 697.801 C 1669.97 697.801 1635.5600000000002 732.219 1635.5600000000002 774.672 C 1635.5600000000002 817.121 1669.9700000000003 851.5310000000001 1712.42 851.5310000000001 C 1754.8700000000001 851.5310000000001 1789.29 817.1210000000001 1789.29 774.672" stroke-linecap="round" />
</g>
		<g transform="matrix(0.11849439062247154 0 0 -0.11849439062247154 -91.03728515779954 -60.869324271662066)"  >
<path style="stroke: none; stroke-width: 1; stroke-dasharray: none; stroke-linecap: butt; stroke-dashoffset: 0; stroke-linejoin: miter; stroke-miterlimit: 4; fill: rgb(0,0,0); fill-rule: nonzero; opacity: 1;"  paint-order="stroke"  transform=" translate(-722.0015000000001, -1772.3400000000001)" d="M 926.898 1819.5 L 926.898 1725.18 L 562.543 1725.18 L 517.105 1819.5 L 926.898 1819.5" stroke-linecap="round" />
</g>
		<g transform="matrix(0.11849439062247154 0 0 -0.11849439062247154 -61.84642901673499 7.093725941809652)"  >
<path style="stroke: none; stroke-width: 1; stroke-dasharray: none; stroke-linecap: butt; stroke-dashoffset: 0; stroke-linejoin: miter; stroke-miterlimit: 4; fill: rgb(0,0,0); fill-rule: nonzero; opacity: 1;"  paint-order="stroke"  transform=" translate(-968.3495, -1198.7849999999999)" d="M 1254.32 1151.62 L 727.926 1151.62 L 682.379 1245.9499999999998 L 1208.87 1245.9499999999998 L 1254.32 1151.62" stroke-linecap="round" />
</g>
		<g transform="matrix(0.11849439062247154 0 0 -0.11849439062247154 -103.52777887331433 -26.88691045699659)"  >
<path style="stroke: none; stroke-width: 1; stroke-dasharray: none; stroke-linecap: butt; stroke-dashoffset: 0; stroke-linejoin: miter; stroke-miterlimit: 4; fill: rgb(0,0,0); fill-rule: nonzero; opacity: 1;"  paint-order="stroke"  transform=" translate(-616.5915, -1485.5549999999998)" d="M 902.613 1438.34 L 376.117 1438.34 L 330.57000000000005 1532.77 L 857.066 1532.77 L 902.613 1438.34" stroke-linecap="round" />
</g>
</g>
</g>
</svg>